<?xml version="1.0" encoding="UTF-8" standalone="no"?>
<!-- Created with Inkscape (http://www.inkscape.org/) -->

<svg
   xmlns:dc="http://purl.org/dc/elements/1.1/"
   xmlns:cc="http://creativecommons.org/ns#"
   xmlns:rdf="http://www.w3.org/1999/02/22-rdf-syntax-ns#"
   xmlns:svg="http://www.w3.org/2000/svg"
   xmlns="http://www.w3.org/2000/svg"
   xmlns:sodipodi="http://sodipodi.sourceforge.net/DTD/sodipodi-0.dtd"
   xmlns:inkscape="http://www.inkscape.org/namespaces/inkscape"
   version="1.1"
   width="91.476311"
   height="46.863033"
   id="svg2"
   inkscape:version="0.48.4 r9939"
   sodipodi:docname="OB-Mat_logo.svg"
   inkscape:export-filename="/home/stk/datalove/mahlowat/img/OB-Mat_logo.png"
   inkscape:export-xdpi="90"
   inkscape:export-ydpi="90">
  <sodipodi:namedview
     pagecolor="#ffffff"
     bordercolor="#666666"
     borderopacity="1"
     objecttolerance="10"
     gridtolerance="10"
     guidetolerance="10"
     inkscape:pageopacity="0"
     inkscape:pageshadow="2"
     inkscape:window-width="640"
     inkscape:window-height="480"
     id="namedview21"
     showgrid="false"
     fit-margin-top="0"
     fit-margin-left="0"
     fit-margin-right="0"
     fit-margin-bottom="0"
     inkscape:zoom="2.3120043"
     inkscape:cx="74.949109"
     inkscape:cy="-7.2734222"
     inkscape:window-x="0"
     inkscape:window-y="30"
     inkscape:window-maximized="0"
     inkscape:current-layer="svg2" />
  <defs
     id="defs4" />
  <metadata
     id="metadata7">
    <rdf:RDF>
      <cc:Work
         rdf:about="">
        <dc:format>image/svg+xml</dc:format>
        <dc:type
           rdf:resource="http://purl.org/dc/dcmitype/StillImage" />
        <dc:title></dc:title>
      </cc:Work>
    </rdf:RDF>
  </metadata>
  <g
     transform="matrix(0.21004013,0,0,0.21004013,-19.504606,-3.1478357)"
     id="layer1">
    <g
       transform="translate(-94.954339,-243.44676)"
       id="g3118">
      <path
         d="m 188.40368,410.62901 -0.1894,-152.19542 c 256.70729,6.24574 140.34583,227.04627 0.1894,152.19542 z m 50.78111,-9.26039 c 9.36428,-4.99111 17.02949,-14.56675 17.02949,-21.27381 l 0,-2.8684 -3.60901,3.16875 c -2.36154,2.07345 -4.17622,2.9379 -5.25,2.50088 -9.6075,-3.91015 -9.93215,-3.96096 -12.20816,-1.91051 -1.1893,1.07143 -2.54958,2.96056 -3.02284,4.19806 -0.80882,2.11488 -1.51229,2.36267 -7.57077,2.66667 -1.03698,0.052 -2.11572,-1.2313 -2.87199,-3.41667 l -1.21121,-3.5 -1.26986,2.70904 c -1.095,2.33599 -1.00984,3.09335 0.6184,5.5 1.03854,1.53503 2.47506,4.14096 3.19227,5.79096 2.55029,5.86718 5.62409,9.4861 8.06319,9.49317 1.29801,0.004 4.94774,-1.37241 8.11049,-3.05814 z m -1.47051,-23.93503 c 0.33992,-0.55 1.38323,-1 2.31847,-1 0.93524,0 2.22002,-0.83198 2.85506,-1.84885 0.63505,-1.01687 3.2271,-3.2216 5.76012,-4.8994 8.93704,-5.91965 21.56635,-21.56222 21.56635,-26.71191 0,-2.23575 -2.42742,-1.8885 -5.67328,0.81159 -6.0654,5.04555 -6.99061,5.12587 -10.83359,0.94049 -1.91493,-2.08556 -3.41429,-4.69192 -3.33189,-5.79192 0.31489,-4.20388 -0.25207,-5.49561 -3.04636,-6.94059 -2.35445,-1.21753 -3.96386,-1.29586 -8.75,-0.42582 -3.22568,0.58637 -7.62576,1.13369 -9.77794,1.21627 -4.86882,0.18681 -5.40981,1.55454 -1.97392,4.99043 1.89728,1.89729 3.02154,2.37796 3.88525,1.66114 1.35695,-1.12616 6.65397,-0.32265 10.28227,1.55974 1.30263,0.67581 1.93474,1.49676 1.40471,1.82434 -2.37267,1.46639 -2.22956,5.68984 0.30542,9.01337 2.37121,3.10882 2.45819,3.60053 1.27693,7.21859 -1.16146,3.55744 -1.77953,4.04999 -7.3815,5.88253 -7.05024,2.30629 -9.3861,3.96479 -9.3861,6.66426 0,4.19988 8.56797,8.96183 10.5,5.83574 z m 0.91821,-23.60699 c 2.54133,-0.9752 1.8272,-3.11181 -1.41821,-4.24317 -2.76226,-0.96293 -3,-0.86502 -3,1.23551 0,3.4232 1.20237,4.2417 4.41821,3.00766 z m -12.41821,-4.27057 c 0,-0.48265 -0.675,-1.43775 -1.5,-2.12244 -1.21651,-1.00961 -1.5,-0.96975 -1.5,0.21089 0,0.80068 0.3,1.75578 0.66667,2.12244 0.94968,0.94969 2.33333,0.82463 2.33333,-0.21089 z m 49.54112,-12.18897 c 1.17263,-1.89736 -0.53762,-2.36554 -2.27922,-0.62395 -1.55894,1.55894 -1.56168,1.69048 -0.0352,1.69048 0.9104,0 1.95189,-0.47994 2.31442,-1.06653 z m -43.04112,-10.93347 c 0.33992,-0.55 0.14148,-1 -0.44098,-1 -0.58246,0 -1.05902,0.45 -1.05902,1 0,0.55 0.19844,1 0.44098,1 0.24254,0 0.7191,-0.45 1.05902,-1 z"
         id="path3132"
         style="fill:#919191"
         inkscape:connector-curvature="0" />
      <path
         d="m 187.81567,420.34802 0.39861,-161.91443 217.5,0 217.5,0 c 0.71781,322.09402 -434.13251,208.88064 -435.39861,161.91443 z m 51.36912,-18.9794 c 9.36428,-4.99111 17.02949,-14.56675 17.02949,-21.27381 l 0,-2.8684 -3.60901,3.16875 c -2.37734,2.08733 -4.16904,2.93715 -5.25,2.49013 -0.90254,-0.37323 -2.39736,-0.8969 -3.32182,-1.1637 -2.28131,-0.65839 -3.13298,-3.23035 -1.30231,-3.93284 0.81573,-0.31303 1.48314,-1.15323 1.48314,-1.86713 0,-0.71389 2.01064,-2.4763 4.4681,-3.91647 2.45745,-1.44016 5.78752,-4.52042 7.40015,-6.84502 1.61262,-2.3246 4.32121,-5.54271 6.01909,-7.15136 1.69787,-1.60865 4.91565,-6.12081 7.15061,-10.02703 2.94171,-5.14143 5.29192,-7.87931 8.51281,-9.917 4.63693,-2.93354 5.69025,-4.70184 2.69924,-4.53147 -4.74643,0.27036 -7.70659,2.08658 -16.54338,10.15032 -2.26023,2.0625 -4.89596,3.75 -5.85717,3.75 -3.3935,0 -6.55358,-5.94783 -7.2841,-13.70997 -0.41467,-4.40602 -0.2764,-7.96142 0.35554,-9.14222 1.52775,-2.85462 0.005,-13.64781 -1.9251,-13.64781 -1.03223,0 -1.40747,0.8466 -1.2108,2.73178 0.15675,1.50248 -0.36251,3.75248 -1.1539,5 -0.79139,1.24752 -1.74232,4.15481 -2.11317,6.46065 -0.8015,4.98354 -2.59342,6.75642 -5.97192,5.90847 -2.09669,-0.52624 -2.58226,-1.39351 -3.14182,-5.61167 -0.67659,-5.10042 -2.10517,-6.25937 -4.36266,-3.53926 -0.66186,0.79749 -1.07488,2.94147 -0.91782,4.7644 0.34556,4.01089 -0.61264,5.78563 -3.1237,5.78563 -2.46419,0 -2.86331,0.83322 -2.26927,4.73745 0.35455,2.33024 1.45922,3.83486 3.94211,5.36937 2.00477,1.23902 3.23587,2.68869 2.9394,3.46127 -0.41085,1.07066 1.59124,6.58878 3.02185,8.32877 0.17946,0.21827 2.0227,0.44327 4.0961,0.5 3.06036,0.0837 3.82767,0.50917 4.07724,2.26068 0.67783,4.7569 -8.30235,8.96447 -16.60443,7.77983 -3.87054,-0.55229 -4.48174,-0.43799 -3.453,0.64578 0.6875,0.72427 1.25,2.71584 1.25,4.42572 0,4.13202 1.73439,6.29171 6.31824,7.86756 2.08548,0.71696 3.79107,1.48806 3.7902,1.71356 -8.7e-4,0.22551 -0.70666,2.09751 -1.56843,4.16001 -1.55779,3.72832 -1.78714,3.84485 -8.20079,4.16667 -1.03698,0.052 -2.11572,-1.2313 -2.87199,-3.41667 l -1.21121,-3.5 -1.26986,2.70904 c -1.095,2.33599 -1.00984,3.09335 0.6184,5.5 1.03854,1.53503 2.47506,4.14096 3.19227,5.79096 2.55029,5.86718 5.62409,9.4861 8.06319,9.49317 1.29802,0.004 4.94774,-1.37241 8.11049,-3.05814 z M 234.9628,345.9621 c -1.25648,-1.72792 -1.42557,-2.61007 -0.5983,-3.12135 1.24103,-0.767 3.84978,2.13598 3.84978,4.28397 0,1.98424 -1.30163,1.51882 -3.25148,-1.16262 z m -7.28446,4.18432 c -0.76576,-3.05103 -4.91672,-7.16914 -6.3398,-6.28963 -1.23773,0.76496 2.31067,7.16119 4.72111,8.51014 2.12704,1.19035 2.3857,0.83551 1.61869,-2.22051 z m 23.35926,-49.37996 c -0.48655,-2.50877 -2.82332,-2.85325 -2.82332,-0.4162 0,1.22833 0.64569,2.08333 1.57332,2.08333 0.93124,0 1.44138,-0.68037 1.25,-1.66713 z m -23.82332,-1.33287 c 0,-0.55 -0.45,-1 -1,-1 -0.55,0 -1,0.45 -1,1 0,0.55 0.45,1 1,1 0.55,0 1,-0.45 1,-1 z"
         id="path3130"
         style="fill:#737373"
         inkscape:connector-curvature="0" />
      <path
         d="m 188.21428,422.93359 0,-164.5 c 772.94541,96.12352 56.61654,262.94207 0,164.5 z m 48.88967,-19.39245 c 11.88632,-4.82178 24.11278,-22.7051 19.01099,-27.80689 -1.60926,-1.60926 -0.40218,-4.39134 5.43672,-12.53063 2.86843,-3.99852 6.85766,-9.97003 8.86497,-13.27003 3.79382,-6.23702 7.69625,-10.43189 11.54765,-12.413 1.2375,-0.63655 2.25,-1.99339 2.25,-3.0152 0,-4.8351 -8.42073,-3.00604 -16.39886,3.56199 -3.08062,2.53614 -5.60114,4.99022 -5.60114,5.4535 0,0.46329 -0.95483,1.35335 -2.12184,1.97791 -1.75981,0.94183 -2.48493,0.77183 -4.25,-0.99637 -2.03835,-2.04198 -2.12816,-3.03628 -2.12816,-23.56127 0,-19.16086 -0.18724,-21.61691 -1.76876,-23.20149 -1.37056,-1.37319 -2.15853,-1.52704 -3.5,-0.68338 -1.28949,0.81097 -1.90691,3.10315 -2.41967,8.98305 -0.65435,7.5034 -2.08998,15.92321 -3.64786,21.39426 -1.51019,5.30357 -3.42775,2.67175 -6.28524,-8.62641 -1.54774,-6.11953 -3.76088,-13.65703 -4.91811,-16.75 -1.90469,-5.09072 -2.38449,-5.62359 -5.06359,-5.62359 -3.60537,0 -4.49056,1.87231 -2.94896,6.23749 1.46619,4.15167 5.05219,22.13492 5.05219,25.33602 0,1.33457 -0.52707,2.42649 -1.17126,2.42649 -2.57587,0 -4.82874,3.35283 -4.82874,7.18637 0,2.56466 -0.5201,4.07598 -1.53698,4.4662 -5.03408,1.93175 -5.61496,17.96722 -1.01485,28.0152 3.06924,6.7041 3.07719,6.84889 0.55183,10.05936 -2.89796,3.68416 -2.5317,5.96138 2.59672,16.14503 5.16859,10.26342 5.907,10.63722 14.29295,7.23539 z"
         id="path3128"
         style="fill:#4e4e4e"
         inkscape:connector-curvature="0" />
      <path
         d="m 188.21427,406.21405 0,-147.78046 c 145,0 290,0 435,0 l 0,128.50419 c -56.11329,2.65501 -420.69324,150.43949 -435,19.27627 z m 47.7125,-0.91674 c 12.89605,-4.76017 23.27475,-18.36386 21.90251,-28.70833 -0.63431,-4.78166 -0.5083,-5.08202 6.82291,-16.26351 10.47071,-15.9698 13.27573,-19.55178 17.21964,-21.98925 2.47384,-1.52892 3.36513,-2.73769 3.1469,-4.26784 -0.247,-1.73197 -1.09579,-2.19229 -4.49823,-2.43954 -5.25754,-0.38205 -8.15481,1.12422 -16.18483,8.4144 l -6.37861,5.79092 -1.82644,-2.25556 c -1.6551,-2.04396 -1.80721,-4.22866 -1.6214,-23.28684 0.20484,-21.00911 0.20257,-21.0333 -2.15572,-22.94472 -4.79929,-3.88989 -6.63343,-1.5155 -7.53329,9.75225 -1.30397,16.32776 -4.54236,26.19232 -6.12427,18.65534 -1.57765,-7.51671 -5.82093,-22.27839 -7.49418,-26.07104 -1.60959,-3.64837 -2.30268,-4.25 -4.89607,-4.25 -4.42264,0 -5.62143,2.83121 -3.72698,8.80209 0.81981,2.58385 2.26071,9.13756 3.20201,14.56379 l 1.71146,9.86588 -3.13895,2.4566 c -2.32404,1.81884 -3.13895,3.26731 -3.13895,5.5794 0,2.00511 -0.93596,4.09974 -2.61506,5.85234 -3.07788,3.21261 -4.80421,10.64693 -3.35653,14.45462 0.53437,1.40551 0.97159,3.66013 0.97159,5.01025 0,1.35012 1.12054,5.21243 2.49008,8.58291 l 2.49009,6.12814 -1.99009,3.22002 c -1.09454,1.77102 -1.99008,4.13708 -1.99008,5.25793 0,1.12084 2.09314,6.58023 4.65143,12.13196 5.22834,11.34604 5.09153,11.26861 14.06106,7.95779 z"
         id="path3126"
         style="fill:#414141"
         inkscape:connector-curvature="0" />
      <path
         d="m 188.21428,422.95927 0,-164.52568 217.5,0 217.5,0 c 8.42974,173.55242 -431.39671,170.12314 -435,164.52568 z m 46.24602,-16.65173 c 14.29481,-4.85955 24.00062,-16.67749 23.63743,-28.78131 -0.16928,-5.64153 0.0626,-6.22009 6.30197,-15.72483 3.56275,-5.4273 7.46334,-11.51182 8.66799,-13.52118 2.25811,-3.76653 9.46605,-10.84663 11.04248,-10.84663 2.16603,0 2.14182,-3.55105 -0.0362,-5.31473 -4.29382,-3.47693 -12.57946,-0.098 -20.97607,8.55413 -3.26559,3.36496 -4.35208,3.95524 -5.70841,3.10134 -2.51966,-1.58628 -2.87614,-5.20707 -2.39643,-24.34074 0.4835,-19.28464 -0.11422,-22.54413 -4.32801,-23.60172 -4.34247,-1.08989 -5.67715,1.32064 -6.5327,11.79861 -0.74906,9.17389 -2.48627,19.70468 -3.40155,20.61997 -0.59423,0.59422 -1.00136,-0.59069 -3.37302,-9.81686 -3.83187,-14.90665 -5.42123,-19.36868 -7.71668,-21.66413 -2.86424,-2.86424 -4.56733,-2.94304 -6.94013,-0.32111 -1.64973,1.82292 -1.70148,2.51321 -0.54355,7.25 0.70388,2.87938 2.10498,9.51024 3.11354,14.73524 l 1.83376,9.5 -2.88922,2.5 c -1.87169,1.61955 -3.13524,3.90872 -3.58779,6.5 -0.38422,2.2 -1.98441,5.47816 -3.55598,7.2848 -2.19312,2.52114 -2.84913,4.26475 -2.82179,7.5 0.0413,4.88317 1.99175,13.60155 4.5297,20.24706 1.65785,4.34102 1.66425,4.8095 0.10185,7.45443 -2.00357,3.39178 -2.16435,8.82906 -0.34126,11.5412 0.72924,1.08488 2.33189,4.49935 3.56143,7.58771 2.13554,5.36405 4.72656,9.8848 5.66538,9.8848 0.24162,0 3.25361,-0.95672 6.6933,-2.12605 z"
         id="path3124"
         style="fill:#3d3d3d"
         inkscape:connector-curvature="0" />
      <path
         d="m 188.21428,422.43359 0,-164 217.5,0 c 46.98566,140.17369 -18.25938,317.22128 -217.5,164 z m 49.14189,-16.47953 c 8.41297,-3.41849 13.87508,-8.20752 17.89135,-15.68664 2.94998,-5.49348 3.38013,-7.18826 3.24207,-12.77376 -0.15626,-6.32185 -0.0442,-6.61521 6.11433,-16 3.45043,-5.25804 7.25912,-11.20408 8.46377,-13.21344 1.84443,-3.07652 6.1124,-7.35871 11.89659,-11.93625 1.65964,-1.31342 1.57608,-2.44145 -0.32143,-4.33895 -3.69442,-3.69442 -12.18105,-0.57634 -20.29591,7.45693 -4.31093,4.2676 -5.68868,5.11109 -7,4.28557 -2.47435,-1.55768 -2.83187,-5.25057 -2.35392,-24.31393 0.4835,-19.28464 -0.11422,-22.54413 -4.32801,-23.60172 -4.3417,-1.0897 -5.67689,1.32093 -6.53494,11.79861 -0.88847,10.849 -2.91036,21.25565 -3.90611,20.1047 -0.38143,-0.44088 -1.49072,-3.95159 -2.4651,-7.80159 -3.69856,-14.61383 -5.93861,-20.98494 -8.15885,-23.20518 -2.72434,-2.72434 -4.6413,-2.89639 -6.9169,-0.62079 -1.84381,1.84381 -1.92631,0.99784 1.93196,19.81209 l 2.458,11.98611 -2.96935,2.51389 c -2.02631,1.71549 -3.16367,3.78424 -3.58121,6.51388 -0.33727,2.20484 -1.6748,5.08007 -2.98031,6.40662 -1.30264,1.32364 -2.6602,3.56913 -3.01681,4.98997 -0.94787,3.77659 1.26139,17.23889 3.79586,23.13043 l 2.19221,5.09593 -2.24428,3.99317 c -2.67734,4.76367 -2.52856,5.56766 3.39002,18.3196 5.13085,11.05473 5.50794,11.22493 15.69697,7.08475 z"
         id="path3122"
         style="fill:#303030"
         inkscape:connector-curvature="0" />
      <path
         d="m 188.21428,422.50168 0,-164.06809 217.52994,0 217.52995,0 c -87.04021,215.10246 -182.46788,44.77364 -297.38466,158.39144 -2.20972,2.20971 -5.79286,4.18905 -10.28333,5.68053 -3.79055,1.25901 -7.96509,3.10786 -9.27676,4.10857 -1.31167,1.0007 -2.99917,1.81946 -3.75,1.81946 -0.75083,0 -1.36514,0.45 -1.36514,1 0,0.55 1.32344,1 2.94098,1 1.61754,0 3.2191,0.45 3.55902,1 0.3863,0.62504 -1.67595,1 -5.5,1 -4.21873,0 -5.90561,-0.3437 -5.43379,-1.10713 0.44301,-0.7168 0.0231,-0.91407 -1.19098,-0.55952 -1.03138,0.30118 -3.75378,1.0326 -6.04978,1.62536 -3.45919,0.89306 -4.28677,1.5887 -4.82945,4.05952 -1.37497,6.26019 -5.496,1.15863 -5.496,-6.80369 0,-5.65075 -4.2198,-16.21454 -6.47705,-16.21454 -0.63389,0 -1.90359,1.575 -2.82156,3.5 -0.91797,1.925 -2.12631,3.5 -2.68521,3.5 -1.54748,0 -1.21163,-6.35933 0.45202,-8.55887 2.03833,-2.69492 1.88452,-5.81194 -0.38829,-7.86881 -1.05605,-0.95572 -2.45635,-4.06296 -3.11177,-6.90499 -0.65543,-2.84203 -1.7679,-5.63148 -2.47216,-6.19878 -0.89999,-0.72497 -1.23781,-3.88845 -1.13691,-10.64647 0.11647,-7.80044 0.49104,-9.99897 1.98475,-11.6495 1.01265,-1.11897 2.58706,-3.42415 3.49868,-5.12264 7.75892,-14.45594 11.50317,-19.36944 19.9075,-26.12415 2.03814,-1.63809 1.43028,-4.76156 -1.27111,-6.53158 -3.40825,-2.23317 -9.21437,-1.36363 -15.09447,2.26059 -9.00381,5.54954 -8.53008,5.41493 -10.92952,3.10554 -2.07603,-1.9981 -2.16727,-2.78312 -1.82261,-15.68187 0.55226,-20.66812 -1.1095,-26.07847 -8.00985,-26.07847 -3.62346,0 -5.62244,3.47436 -5.62244,9.77217 0,2.94705 -0.72126,6.7219 -1.61432,8.4489 -1.5113,2.92253 -1.68609,2.99913 -2.73894,1.20034 -0.61854,-1.05678 -2.25459,-5.2518 -3.63568,-9.32228 -2.97341,-8.76356 -6.32966,-12.08435 -10.65546,-10.54288 -5.34751,1.90555 -5.34963,2.60095 -0.0864,28.30145 0.96188,4.69688 0.8896,5.4739 -0.58604,6.29971 -2.1441,1.1999 -4.68321,6.07306 -4.68321,8.98821 0,1.23472 -1.16106,3.45683 -2.58013,4.93802 -5.00748,5.22668 -5.06682,12.9426 -0.21347,27.75727 1.96394,5.99485 1.98771,6.52883 0.43546,9.78393 -0.90302,1.89366 -1.64186,4.57509 -1.64186,5.95875 0,1.38365 -0.71374,3.89595 -1.58609,5.58288 -0.87234,1.68693 -1.35503,3.95067 -1.07265,5.03053 0.28239,1.07985 -0.12887,3.78387 -0.91391,6.00891 -0.78504,2.22505 -1.42735,4.63504 -1.42735,5.35554 0,0.7205 2.38757,3.70142 5.30571,6.62427 2.91814,2.92286 6.18064,6.44155 7.25,7.81933 1.06936,1.37778 3.18179,3.30065 4.69429,4.27305 1.5125,0.9724 2.75,2.47924 2.75,3.34853 0,0.86929 2.1375,4.17985 4.75,7.3568 2.6125,3.17695 5.51657,7.18034 6.45349,8.89642 1.19409,2.18712 2.43956,3.12015 4.16501,3.12015 199.18301,56.95856 -55.76574,29.11711 -57.3685,-26.93191 z m 102.19155,19.165 c -1.52908,-0.25668 -2.1913,-0.95228 -1.96143,-2.0603 0.59887,-2.88678 10.76988,-1.23271 10.76988,1.75147 0,0.74332 -5.14546,0.92372 -8.80845,0.30883 z m -70.64884,-37.16399 c -0.68308,-1.10523 0.8944,-2.29865 1.81781,-1.37525 0.95078,0.95079 0.77359,2.30615 -0.3015,2.30615 -0.51754,0 -1.19988,-0.41891 -1.51631,-0.9309 z"
         id="path3120"
         style="fill:#141414"
         inkscape:connector-curvature="0" />
      <g
         id="text3167"
         style="font-size:200px;font-style:normal;font-variant:normal;font-weight:normal;font-stretch:normal;line-height:125%;letter-spacing:0px;word-spacing:0px;fill:#f9f9f9;fill-opacity:1;stroke:none;font-family:Raleway;-inkscape-font-specification:Raleway">
        <path
           d="m 328.29146,357.71752 c -4.32002,0 -8.24002,-0.82667 -11.76,-2.48 -3.52001,-1.65333 -6.53334,-3.81333 -9.04,-6.48 -2.50667,-2.71999 -4.45334,-5.81332 -5.84,-9.28 -1.38667,-3.46665 -2.08,-7.03998 -2.08,-10.72 0,-3.7333 0.72,-7.3333 2.16,-10.8 1.44,-3.46663 3.44,-6.50662 6,-9.12 2.61332,-2.66662 5.67999,-4.77328 9.2,-6.32 3.57331,-1.59995 7.46664,-2.39994 11.68,-2.4 4.31997,6e-5 8.23996,0.82672 11.76,2.48 3.51996,1.65338 6.53329,3.84005 9.04,6.56 2.50661,2.72004 4.42661,5.81337 5.76,9.28 1.38661,3.4667 2.07994,7.01336 2.08,10.64 -6e-5,3.73336 -0.72006,7.33335 -2.16,10.8 -1.44005,3.41335 -3.44005,6.45334 -6,9.12 -2.56005,2.61334 -5.62671,4.72 -9.2,6.32 -3.52004,1.6 -7.3867,2.4 -11.6,2.4 m -12.88,-28.8 c -2e-5,1.92002 0.26665,3.78669 0.8,5.6 0.53332,1.76002 1.33332,3.33335 2.4,4.72 1.06665,1.38668 2.39998,2.50668 4,3.36 1.65331,0.85335 3.59997,1.28001 5.84,1.28 2.23997,10e-6 4.18663,-0.42665 5.84,-1.28 1.6533,-0.90665 2.98663,-2.05332 4,-3.44 1.06663,-1.43998 1.83996,-3.06665 2.32,-4.88 0.53329,-1.81331 0.79996,-3.65331 0.8,-5.52 -4e-5,-1.91997 -0.26671,-3.75997 -0.8,-5.52 -0.53337,-1.8133 -1.36004,-3.38663 -2.48,-4.72 -1.0667,-1.38663 -2.4267,-2.47996 -4.08,-3.28 -1.60003,-0.85329 -3.49336,-1.27996 -5.68,-1.28 -2.24003,4e-5 -4.18669,0.42671 -5.84,1.28 -1.60002,0.85337 -2.93335,2.00004 -4,3.44 -1.06668,1.3867 -1.86668,2.9867 -2.4,4.8 -0.48002,1.76003 -0.72002,3.57336 -0.72,5.44"
           id="path3191"
           style="font-size:80px;font-weight:900;text-align:start;line-height:125%;writing-mode:lr-tb;text-anchor:start;fill:#f9f9f9;font-family:Raleway;-inkscape-font-specification:Raleway Heavy"
           inkscape:connector-curvature="0" />
        <path
           d="m 412.26146,342.67752 c -5e-5,2.56001 -0.53338,4.77334 -1.6,6.64 -1.06671,1.81334 -2.53338,3.30667 -4.4,4.48 -1.86671,1.17333 -4.05337,2.05333 -6.56,2.64 -2.45337,0.53333 -5.0667,0.8 -7.84,0.8 l -27.92,0 0,-56.8 32.96,0 c 1.9733,6e-5 3.75996,0.42672 5.36,1.28 1.59996,0.85339 2.95996,1.97339 4.08,3.36 1.11995,1.33338 1.97329,2.88005 2.56,4.64 0.63995,1.70671 0.95995,3.46671 0.96,5.28 -5e-5,2.6667 -0.69338,5.2267 -2.08,7.68 -1.33338,2.40003 -3.36004,4.21336 -6.08,5.44 3.25329,0.96003 5.81329,2.64002 7.68,5.04 1.91995,2.34669 2.87995,5.52002 2.88,9.52 m -15.84,-3.2 c -3e-5,-1.38665 -0.37337,-2.53331 -1.12,-3.44 -0.7467,-0.95998 -1.7067,-1.43998 -2.88,-1.44 l -12.88,0 0,9.52 12.32,0 c 1.27997,10e-6 2.34663,-0.39999 3.2,-1.2 0.90663,-0.79999 1.35997,-1.94665 1.36,-3.44 m -16.88,-25.76 0,8.72 10.64,0 c 1.06664,3e-5 2.02664,-0.2933 2.88,-0.88 0.90663,-0.58663 1.35997,-1.75996 1.36,-3.52 -3e-5,-1.54663 -0.37337,-2.63996 -1.12,-3.28 -0.7467,-0.69329 -1.6267,-1.03996 -2.64,-1.04 l -11.12,0"
           id="path3193"
           style="font-size:80px;font-weight:900;text-align:start;line-height:125%;writing-mode:lr-tb;text-anchor:start;fill:#f9f9f9;font-family:Raleway;-inkscape-font-specification:Raleway Heavy"
           inkscape:connector-curvature="0" />
        <path
           d="m 418.21771,341.95752 0,-13.6 25.04,0 0,13.6 -25.04,0"
           id="path3195"
           style="font-size:80px;font-weight:900;text-align:start;line-height:125%;writing-mode:lr-tb;text-anchor:start;fill:#f9f9f9;font-family:Raleway;-inkscape-font-specification:Raleway Heavy"
           inkscape:connector-curvature="0" />
        <path
           d="m 495.02646,357.23752 0,-29.92 -9.52,21.04 -8.32,0 -9.52,-21.04 0,29.92 -15.6,0 0,-56.8 17.04,0 12.24,26.72 12.32,-26.72 16.96,0 0,56.8 -15.6,0"
           id="path3197"
           style="font-size:80px;font-weight:900;text-align:start;line-height:125%;writing-mode:lr-tb;text-anchor:start;fill:#f9f9f9;font-family:Raleway;-inkscape-font-specification:Raleway Heavy"
           inkscape:connector-curvature="0" />
        <path
           d="m 531.08271,358.03752 c -2.08001,0 -4.02668,-0.34667 -5.84,-1.04 -1.81334,-0.69333 -3.38667,-1.62667 -4.72,-2.8 -1.28,-1.22666 -2.29333,-2.66666 -3.04,-4.32 -0.74667,-1.65333 -1.12,-3.43999 -1.12,-5.36 0,-2.13332 0.45333,-4.07998 1.36,-5.84 0.90667,-1.75998 2.16,-3.27998 3.76,-4.56 1.59999,-1.27998 3.49333,-2.26664 5.68,-2.96 2.23999,-0.69331 4.69332,-1.03997 7.36,-1.04 3.41331,3e-5 6.23998,0.53336 8.48,1.6 l 0,-1.28 c -3e-5,-1.97331 -0.58669,-3.43997 -1.76,-4.4 -1.12002,-0.95997 -2.96002,-1.43997 -5.52,-1.44 -2.40002,3e-5 -4.61335,0.40003 -6.64,1.2 -2.02668,0.7467 -4.16001,1.86669 -6.4,3.36 l -4.4,-9.44 c 5.54666,-3.57329 11.86665,-5.35996 18.96,-5.36 6.71997,4e-5 11.8933,1.49337 15.52,4.48 3.62663,2.9867 5.43996,7.4667 5.44,13.44 l 0,8.16 c -4e-5,1.44001 0.21329,2.45335 0.64,3.04 0.42662,0.53334 1.17329,0.85334 2.24,0.96 l 0,12.8 c -1.22671,0.26666 -2.40004,0.45333 -3.52,0.56 -1.06671,0.16 -2.0267,0.24 -2.88,0.24 -2.72003,0 -4.80003,-0.48 -6.24,-1.44 -1.3867,-1.01333 -2.29336,-2.48 -2.72,-4.4 l -0.32,-1.52 c -1.86669,2.4 -4.02669,4.24 -6.48,5.52 -2.45335,1.22666 -5.06668,1.84 -7.84,1.84 m 4.56,-10.88 c 0.90665,1e-5 1.83998,-0.13332 2.8,-0.4 0.95998,-0.31999 1.81331,-0.71999 2.56,-1.2 0.58664,-0.42666 1.06664,-0.87999 1.44,-1.36 0.37331,-0.53332 0.55997,-1.06665 0.56,-1.6 l 0,-3.12 c -0.90669,-0.31998 -1.89336,-0.58665 -2.96,-0.8 -1.06669,-0.21332 -2.02669,-0.31998 -2.88,-0.32 -1.86668,2e-5 -3.41335,0.45335 -4.64,1.36 -1.22668,0.90668 -1.84001,2.05335 -1.84,3.44 -1e-5,1.17334 0.45332,2.13334 1.36,2.88 0.95998,0.74668 2.15998,1.12001 3.6,1.12"
           id="path3199"
           style="font-size:80px;font-weight:900;text-align:start;line-height:125%;writing-mode:lr-tb;text-anchor:start;fill:#f9f9f9;font-family:Raleway;-inkscape-font-specification:Raleway Heavy"
           inkscape:connector-curvature="0" />
        <path
           d="m 595.70271,354.91752 c -2.13336,0.90667 -4.42669,1.68 -6.88,2.32 -2.40002,0.58666 -4.77335,0.88 -7.12,0.88 -1.70668,0 -3.33335,-0.21334 -4.88,-0.64 -1.54668,-0.42667 -2.90668,-1.12 -4.08,-2.08 -1.12001,-0.96 -2.02667,-2.21333 -2.72,-3.76 -0.64,-1.54666 -0.96,-3.46666 -0.96,-5.76 l 0,-19.28 -5.2,0 0,-11.44 5.2,0 0,-13.2 15.2,0 0,13.2 8.24,0 0,11.44 -8.24,0 0,13.92 c -2e-5,1.38668 0.29331,2.37335 0.88,2.96 0.58665,0.53334 1.38664,0.80001 2.4,0.8 0.74664,1e-5 1.59998,-0.10666 2.56,-0.32 0.95997,-0.26665 1.91997,-0.61332 2.88,-1.04 l 2.72,12"
           id="path3201"
           style="font-size:80px;font-weight:900;text-align:start;line-height:125%;writing-mode:lr-tb;text-anchor:start;fill:#f9f9f9;font-family:Raleway;-inkscape-font-specification:Raleway Heavy"
           inkscape:connector-curvature="0" />
      </g>
    </g>
  </g>
</svg>
